/* XPM */
static char * yubikey_personalization_gui_xpm[] = {
"32 32 379 2",
"  	c None",
". 	c #A4CF51",
"+ 	c #A5CF51",
"@ 	c #A5D051",
"# 	c #A4CF52",
"$ 	c #A7D252",
"% 	c #9BCA41",
"& 	c #B1D66B",
"* 	c #C8E296",
"= 	c #D1E5A8",
"- 	c #9FCC48",
"; 	c #ADD463",
"> 	c #D4E8AC",
", 	c #BFDD86",
"' 	c #A6D056",
") 	c #9DCC45",
"! 	c #A5CF52",
"~ 	c #A3CE51",
"{ 	c #A6D152",
"] 	c #A1CD4C",
"^ 	c #D0E6A5",
"/ 	c #FDFEFC",
"( 	c #FFFFFF",
"_ 	c #EEEEEC",
": 	c #96C240",
"< 	c #B4D870",
"[ 	c #F0F7E3",
"} 	c #C2DE8A",
"| 	c #9DCB43",
"1 	c #A7D352",
"2 	c #A5D152",
"3 	c #9FCC47",
"4 	c #C5E091",
"5 	c #F3F3F2",
"6 	c #AED06B",
"7 	c #C5E090",
"8 	c #F8FBF2",
"9 	c #B2D66B",
"0 	c #A2CE4D",
"a 	c #A4CE51",
"b 	c #A8D453",
"c 	c #A1CD4B",
"d 	c #E1EFC4",
"e 	c #C8E397",
"f 	c #A4CF50",
"g 	c #ABD954",
"h 	c #A7D452",
"i 	c #A0CD4A",
"j 	c #A5D053",
"k 	c #9EC453",
"l 	c #F8F7F8",
"m 	c #EEF1E7",
"n 	c #7C9E39",
"o 	c #A5D14F",
"p 	c #A2CE4E",
"q 	c #A8D552",
"r 	c #DDEDC0",
"s 	c #B9DA7A",
"t 	c #9FCD46",
"u 	c #DFECC7",
"v 	c #C0D0A2",
"w 	c #A0D042",
"x 	c #CFE5A4",
"y 	c #C9E399",
"z 	c #A3CF50",
"A 	c #A5CF53",
"B 	c #B8DA79",
"C 	c #E9F3D5",
"D 	c #B0D566",
"E 	c #ACD461",
"F 	c #ACD45F",
"G 	c #D8E6BB",
"H 	c #A6D055",
"I 	c #ABD658",
"J 	c #E3E3E3",
"K 	c #E8F2D3",
"L 	c #AAD25D",
"M 	c #9DCB44",
"N 	c #FBFDF8",
"O 	c #CEE5A1",
"P 	c #A8CA66",
"Q 	c #DAEBB8",
"R 	c #A3CE4F",
"S 	c #97B658",
"T 	c #FAF8FE",
"U 	c #E9F3D7",
"V 	c #9FCD47",
"W 	c #C3DF8C",
"X 	c #FBFDF7",
"Y 	c #9CCB42",
"Z 	c #9FCE43",
"` 	c #ECECEA",
" .	c #B5D872",
"..	c #A4D04D",
"+.	c #B3BD9D",
"@.	c #ADD067",
"#.	c #A2CC4F",
"$.	c #9DCA43",
"%.	c #EEF6E0",
"&.	c #B8D977",
"*.	c #C4D899",
"=.	c #FBFDF9",
"-.	c #9CCA41",
";.	c #A3CE50",
">.	c #A2CD4F",
",.	c #9CC649",
"'.	c #E1DCE9",
").	c #D1DFB5",
"!.	c #A4CF4E",
"~.	c #A9D651",
"{.	c #A1CC4D",
"].	c #A0CB4B",
"^.	c #FCFCFC",
"/.	c #FBFBFB",
"(.	c #E1EEC6",
"_.	c #A1CE4B",
":.	c #A0C753",
"<.	c #FFFDFF",
"[.	c #D3E7AA",
"}.	c #A1CC4E",
"|.	c #A0CA4D",
"1.	c #9DB174",
"2.	c #F6F5F8",
"3.	c #95C33B",
"4.	c #A3CE4E",
"5.	c #9FCA4C",
"6.	c #A0CA4C",
"7.	c #B6D778",
"8.	c #FAF9FD",
"9.	c #F8F8F8",
"0.	c #FEFCFF",
"a.	c #A2D049",
"b.	c #DCE2CE",
"c.	c #FDFAFF",
"d.	c #ADD363",
"e.	c #A0CB4C",
"f.	c #9FC94B",
"g.	c #9ECD42",
"h.	c #C6C4C7",
"i.	c #97BC4E",
"j.	c #9EC94B",
"k.	c #9BC44A",
"l.	c #9BC548",
"m.	c #9EC94A",
"n.	c #C5DD94",
"o.	c #FBFBFC",
"p.	c #F4F4F4",
"q.	c #C9E199",
"r.	c #B6D083",
"s.	c #F2F5EC",
"t.	c #97C63C",
"u.	c #9DC84A",
"v.	c #9CC648",
"w.	c #8EAB53",
"x.	c #F6F5F9",
"y.	c #F3F3F3",
"z.	c #FFFEFF",
"A.	c #A8C56E",
"B.	c #99C348",
"C.	c #98C246",
"D.	c #9BC647",
"E.	c #94C03F",
"F.	c #7BA22D",
"G.	c #AEC580",
"H.	c #F0F0F1",
"I.	c #F0F0F0",
"J.	c #EEEFE7",
"K.	c #9CCB41",
"L.	c #A1CB4D",
"M.	c #97C340",
"N.	c #C9DAA3",
"O.	c #9DC749",
"P.	c #9BC547",
"Q.	c #9AC742",
"R.	c #B0B89E",
"S.	c #F2F2F2",
"T.	c #FBF9FF",
"U.	c #6B931B",
"V.	c #7CA42D",
"W.	c #8DB43E",
"X.	c #98C247",
"Y.	c #96C144",
"Z.	c #9AC446",
"`.	c #9CC64D",
" +	c #A0C653",
".+	c #C2D796",
"++	c #EBECEC",
"@+	c #ECECEC",
"#+	c #EFEDF3",
"$+	c #B1D36D",
"%+	c #9DC849",
"&+	c #99C345",
"*+	c #98C244",
"=+	c #8FB83F",
"-+	c #DBD6E2",
";+	c #F4F2F9",
">+	c #8DB342",
",+	c #9FC653",
"'+	c #9CC64A",
")+	c #99C445",
"!+	c #96BF45",
"~+	c #95BF43",
"{+	c #BED48E",
"]+	c #EFECF5",
"^+	c #ECEAEF",
"/+	c #E8E8E8",
"(+	c #D1DEB5",
"_+	c #9BC745",
":+	c #9AC546",
"<+	c #98C344",
"[+	c #97C143",
"}+	c #95BF42",
"|+	c #96A870",
"1+	c #EFF0EF",
"2+	c #E7E7E7",
"3+	c #F1EEF6",
"4+	c #F4EFFC",
"5+	c #9FBC65",
"6+	c #97C144",
"7+	c #92BB42",
"8+	c #94BF41",
"9+	c #95C042",
"0+	c #A8C968",
"a+	c #E7E5EA",
"b+	c #E4E4E4",
"c+	c #EBE7F1",
"d+	c #97C440",
"e+	c #94BF40",
"f+	c #93C238",
"g+	c #BEBBC1",
"h+	c #82A63A",
"i+	c #95C041",
"j+	c #93BE40",
"k+	c #8FBC36",
"l+	c #E9E4F1",
"m+	c #E1E1E1",
"n+	c #B7CF87",
"o+	c #97C043",
"p+	c #92BC3F",
"q+	c #85A14D",
"r+	c #E8E7E9",
"s+	c #DEDDDD",
"t+	c #7EA92A",
"u+	c #98C541",
"v+	c #96C340",
"w+	c #8EBB37",
"x+	c #CED7BA",
"y+	c #DEDEDE",
"z+	c #D8DCCE",
"A+	c #8DBB34",
"B+	c #92BD3E",
"C+	c #91BC3E",
"D+	c #93C139",
"E+	c #A8AF9A",
"F+	c #DFDFDF",
"G+	c #DDDEDD",
"H+	c #A7B38E",
"I+	c #97C341",
"J+	c #93BE3F",
"K+	c #A5C467",
"L+	c #E1E0E4",
"M+	c #BACF93",
"N+	c #91BC3D",
"O+	c #89B03C",
"P+	c #D2CFD9",
"Q+	c #EAE8EE",
"R+	c #7B9D39",
"S+	c #91BB3E",
"T+	c #8AB23C",
"U+	c #93BF3E",
"V+	c #8BBA31",
"W+	c #D5DAC9",
"X+	c #DEDEDD",
"Y+	c #DDDDDD",
"Z+	c #E1E1E3",
"`+	c #E6E1EE",
" @	c #95A672",
".@	c #E5E5E4",
"+@	c #E0E0E1",
"@@	c #DDDDDC",
"#@	c #B1B99E",
"$@	c #8DB938",
"%@	c #96C33E",
"&@	c #94BC46",
"*@	c #E4E0E9",
"=@	c #DBDCD8",
"-@	c #90A666",
";@	c #E6E3EB",
">@	c #C9D5B0",
",@	c #8FBB37",
"'@	c #91C036",
")@	c #BBB8C1",
"!@	c #DDDDDE",
"~@	c #E7E6E9",
"{@	c #8CA160",
"]@	c #E2E0E7",
"^@	c #E2E2E2",
"/@	c #73982B",
"(@	c #90BB3D",
"_@	c #8CB63C",
":@	c #94C03E",
"<@	c #A5C06F",
"[@	c #709032",
"}@	c #92C133",
"|@	c #C3CCAF",
"1@	c #E2E0E6",
"2@	c #A1C45C",
"3@	c #92BD3D",
"4@	c #86A050",
"5@	c #E6E6E7",
"6@	c #9CAE7B",
"7@	c #95C140",
"8@	c #98BA55",
"9@	c #7D954B",
"0@	c #95C23E",
"a@	c #92BE3E",
"b@	c #8FBD38",
"c@	c #C5D3A6",
"d@	c #E0DFE2",
"e@	c #E2E1E3",
"f@	c #A1B181",
"g@	c #A0AE83",
"h@	c #A1AF83",
"i@	c #B7BAB0",
"j@	c #E4E1EA",
"k@	c #ADCB70",
"l@	c #93BE3E",
"m@	c #93BF3D",
"n@	c #9AB75F",
"o@	c #E4E1E8",
"p@	c #E0E1E0",
"q@	c #E1E1E0",
"r@	c #E8E7EA",
"s@	c #E4E4E6",
"t@	c #D8DAD4",
"u@	c #78943D",
"v@	c #93C03E",
"w@	c #94C040",
"x@	c #84AC36",
"y@	c #B8C0A5",
"z@	c #EAE7EF",
"A@	c #DCDCDC",
"B@	c #7F9C44",
"C@	c #9AAF6F",
"D@	c #E2E1E5",
"E@	c #E7E6EA",
"F@	c #9AA87D",
"G@	c #739927",
"H@	c #95C13F",
"I@	c #94C13E",
"J@	c #94C23E",
"K@	c #90BA3D",
"L@	c #91BE39",
"M@	c #82A53C",
"N@	c #A7B48A",
"O@	c #D2D3D0",
"P@	c #EBE8F0",
"Q@	c #E2DFE7",
"R@	c #84B12B",
"S@	c #A2C45F",
"T@	c #F0EAF8",
"U@	c #C0C5B3",
"V@	c #92A36F",
"W@	c #6E9425",
"X@	c #8FB93D",
"Y@	c #80AC2A",
"Z@	c #779D2A",
"`@	c #7D9C40",
" #	c #8EBA3B",
".#	c #779837",
"+#	c #719823",
"@#	c #84AE32",
"##	c #96C43F",
"$#	c #8AB23B",
"%#	c #8CB53C",
"&#	c #98C63F",
"*#	c #86AD3A",
"=#	c #85AB3B",
"-#	c #86AC3A",
"                        . . . . + . @ +                         ",
"                  . . . . # . . . . # . @ @ $                   ",
"                . . . % & * = - ; > , ' ) ! ~ {                 ",
"            @ . # ] ^ / ( ( _ : < ( ( ( [ } | ! @ 1             ",
"          2 . 3 4 ( ( ( ( ( 5 6 7 ( ( ( ( ( 8 9 0 a b           ",
"        2 . c d ( ( ( ( ( ( ( ( ( ( ( ( ( ( ( ( e f ~ g         ",
"      h . i j k l ( ( ( ( ( ( ( ( ( ( ( ( ( ( m n o p ~ q       ",
"      . i r s t u ( ( ( ( ( ( ( ( ( ( ( ( ( ( v w x y z 1       ",
"    { A B ( ( C ( D E E F G ( ( ( ( ( H E E I J K ( ( L . 1     ",
"  2 . M N ( ( ( ( O ! . . P ( ( ( ( Q R . . S T ( ( ( U V {     ",
"  @ ! W ( ( ( ( ( X Y . . Z ` ( ( (  .. f ..+.( ( ( ( ( @.a #.  ",
"  f $.%.( ( ( ( ( ( &.# . # *.( ( =.-.;.>.,.'.( ( ( ( ( ).!.~.  ",
"  {.].( ^.^.^.^.^./.(._.. . :.<./.[.>.}.|.1.( ^.^.^.^./.2.3.4.  ",
"5.6.7.8.9.9.9.9.9.9.0.z . . a.b.c.d.e.f.g.h.9.9.9.9.9.9.( i.j.k.",
"l.m.n.o.l p.p.p.p.p.p.q.! f ;.r.s.t.u.v.w.x.p.p.p.p.y.o.z.A.u.B.",
"C.D.E.F.G.H.I.I.I.I.I.J.K.>.L.M.N.O.P.Q.R.S.I.I.I.I.T.U.V.W.P.X.",
"Y.Z.`. +.+++@+@+@+@+@+#+$+e.j.%+&+Z.*+=+-+@+@+@+@+@+;+>+,+'+)+!+",
"~+*+{+]+^+/+/+/+/+/+/+/+(+_+v.:+<+[+}+|+1+/+/+/+/+/+2+3+4+5+6+7+",
"8+9+0+a+b+b+b+b+b+b+b+b+c+d+&+[+9+e+f+g+J b+b+b+b+b+b+b+3+h+i+  ",
"  j+k+l+m+m+m+m+m+m+m+m+m+n+o+8+j+p+q+r+m+m+m+m+m+m+m+m+s+t+u+  ",
"  v+w+x+y+y+y+y+y+y+y+y+y+z+A+B+C+D+E+F+y+y+y+y+y+y+y+G+H+I+J+  ",
"  C+C+K+L+y+y+y+y+y+y+y+G+M+p+N+N+O+P+y+y+y+y+y+y+y+y+Q+R+S+T+  ",
"    U+V+W+X+Y+Z+y+y+y+y+`+p+N+N+N+ @.@y+y+y+y+y++@y+@@#@$@%@    ",
"    U+N+&@*@=@-@;@y+y+X+>@,@N+N+'@)@!@y+y+y+y+~@{@]@^@/@(@_@    ",
"      :@B+<@[@}@|@y+y+1@2@B+3@N+4@5@y+y+y+y+y+6@7@8@9@: 0@      ",
"        a@3@b@c@d@y+y+e@f@g@g@h@i@y+y+y+y+y+y+j@k@N+l@:@        ",
"        m@N+N+n@o@Y+y+y+p@q@q@r@s@y+y+y+y+y+y+t@u@:@:@          ",
"          N+v@w@x@y@z@Y+y+y+A@B@C@D@y+X+F+E@F@G@H@I@            ",
"              J@K@L@M@N@O@P@Q@R@S@T@a+U@V@W@J+K@%@              ",
"                X@%@K@v+Y@Z@`@ #9+.#+#@#M.K@##$#                ",
"                    %#K@&#N+N+N+N+N+3@&#X@*#                    ",
"                            =#-#-#                              "};
